PathFileType	4	(X/Y/Z)	s08c0201.trc
DataRate	CameraRate	NumFrames	NumMarkers	Units	OrigDataRate	OrigDataStartFrame	OrigNumFrames
200	200	4	50	mm	200	500	2000
Frame#	Time	racr			lacr			c7			jug			rlel			rdr			llel			ldr			s2			lic			ric			lasi			rasi			rpsi			lpsi			rgt			lgt			rth1			rth2			rth3			rth4			rlfc			rmfc			rsh1			rsh2			rsh3			rsh4			rlmal			rmmal			rcal			rtoe			rmt5			lth1			lth2			lth4			lth3			llfc			lmfc			llmal			lmmal			lcal			lmt5			lsh1			lsh2			lsh3			lsh4			ltoe			SBIKE			LBIKE			RBIKE			
		X1	Y1	Z1	X2	Y2	Z2	X3	Y3	Z3	X4	Y4	Z4	X5	Y5	Z5	X6	Y6	Z6	X7	Y7	Z7	X8	Y8	Z8	X9	Y9	Z9	X10	Y10	Z10	X11	Y11	Z11	X12	Y12	Z12	X13	Y13	Z13	X14	Y14	Z14	X15	Y15	Z15	X16	Y16	Z16	X17	Y17	Z17	X18	Y18	Z18	X19	Y19	Z19	X20	Y20	Z20	X21	Y21	Z21	X22	Y22	Z22	X23	Y23	Z23	X24	Y24	Z24	X25	Y25	Z25	X26	Y26	Z26	X27	Y27	Z27	X28	Y28	Z28	X29	Y29	Z29	X30	Y30	Z30	X31	Y31	Z31	X32	Y32	Z32	X33	Y33	Z33	X34	Y34	Z34	X35	Y35	Z35	X36	Y36	Z36	X37	Y37	Z37	X38	Y38	Z38	X39	Y39	Z39	X40	Y40	Z40	X41	Y41	Z41	X42	Y42	Z42	X43	Y43	Z43	X44	Y44	Z44	X45	Y45	Z45	X46	Y46	Z46	X47	Y47	Z47	X48	Y48	Z48	X49	Y49	Z49	X50	Y50	Z50	
500	2.5000	544.389707	1352.963213	-26.771469	580.437534	1313.126302	-381.565185	547.599525	1427.798888	-215.307721	504.390637	1271.529432	-200.659980	537.656062	1109.170154	88.156186	736.492585	934.531314	-59.230973	543.447626	1051.589138	-500.451836	754.399455	910.755030	-417.549225	-2.821230	1202.741342	-225.635399	159.449021	1209.811804	-365.613830	146.727393	1218.809102	-50.273999	186.065114	1168.797687	-325.098059	181.976013	1163.060156	-81.409684	27.053110	1242.039092	-171.307590	28.675254	1250.255616	-266.252546	76.964244	1088.063479	-36.356677	128.581349	1106.861228	-406.196719	176.022097	941.106471	-26.613491	238.499208	878.174165	-31.046938	261.147773	795.169677	-45.033049	270.372599	896.993260	-35.888074	323.890719	695.295279	-60.960376	303.935846	680.449818	-167.488324	292.149626	565.683518	-28.677287	318.461311	481.702991	-46.282332	298.542468	397.530421	-54.006333	346.249094	487.126697	-76.220855	294.245234	276.747940	-62.037471	307.859518	300.169905	-150.387012	220.410005	245.196684	-109.015590	517.496026	241.893832	-107.091977	430.299766	206.274699	-41.770488	235.878687	1027.658870	-399.897241	317.874634	999.935346	-387.341241	335.176960	1027.660820	-370.407047	377.079068	933.444681	-384.525130	447.280190	834.179127	-358.978882	433.950756	800.757161	-253.018381	129.484280	566.654531	-396.383173	160.702180	558.456840	-311.996265	65.032334	587.475462	-357.307956	181.145845	408.228251	-421.172910	359.708083	748.906073	-390.742995	307.244053	682.002130	-383.004932	227.233796	644.814731	-390.088654	322.147156	663.607040	-350.163600	262.322474	376.119734	-353.759837	-138.316582	942.443695	-226.459659	17.673624	80.832506	-427.776052	17.795474	79.964480	-29.280786	
501	2.5050	547.520294	1355.709830	-30.003404	579.486553	1313.888284	-385.043030	548.959343	1429.202498	-219.108953	505.396658	1273.138068	-203.337386	539.584860	1112.707295	86.913923	735.556917	934.013006	-59.137637	542.246164	1050.858900	-500.930259	754.453115	910.964689	-417.316080	-1.251444	1204.190290	-221.518126	158.788137	1212.017967	-363.043114	151.223852	1219.082494	-47.741260	186.714750	1171.457070	-322.448532	184.403169	1161.603860	-79.070187	28.860325	1242.952521	-166.212395	29.468831	1251.730887	-261.720560	78.426067	1087.553911	-34.440872	129.633167	1111.438441	-404.281877	173.240049	938.607461	-24.901457	233.944394	873.775401	-29.320777	253.897326	790.553272	-43.462984	265.962942	891.637757	-35.001030	313.722379	688.261103	-60.744700	294.632832	673.142709	-165.589466	282.806752	558.909710	-27.537167	309.889864	475.256342	-45.173179	290.797896	390.771326	-53.191750	337.842334	480.781948	-75.033068	287.840199	270.076869	-61.530251	301.698649	293.463042	-149.844325	214.260090	239.722878	-108.758594	511.409791	232.177394	-106.891910	423.688238	197.816133	-41.563330	237.354002	1033.098011	-398.379160	319.674263	1006.763893	-385.927697	336.475321	1034.452231	-368.227993	380.081143	941.129870	-383.436188	451.889538	842.634386	-358.600925	439.087657	808.677345	-252.487193	134.376549	574.813983	-395.559978	165.772551	566.719168	-311.408656	69.727088	594.713925	-356.470164	188.032300	417.330031	-421.027057	364.318895	757.668230	-390.066995	312.373804	691.748574	-384.187700	231.929603	653.450360	-389.348756	327.128368	671.961815	-349.973735	271.113624	386.371938	-353.270443	-138.160958	942.620323	-226.006534	17.657496	81.059592	-427.702142	17.832495	79.965330	-29.228131	
502	2.5100	550.856274	1358.617911	-33.401764	578.306518	1314.583674	-388.690003	550.144729	1430.452223	-222.975725	506.532754	1274.518274	-206.064707	542.091188	1115.955536	85.535902	734.761037	933.418292	-59.072433	541.092906	1050.295322	-501.626605	754.589451	911.206129	-417.113875	0.014451	1205.466910	-217.316020	158.206015	1213.916086	-360.501582	155.676086	1219.142299	-45.239958	187.400461	1173.893539	-319.753720	187.041552	1160.376481	-77.006674	30.784012	1243.797964	-161.640139	30.207061	1253.259887	-257.233321	79.942443	1087.306443	-32.488637	130.657647	1116.046403	-402.368302	170.211114	936.264266	-23.172627	229.071979	869.675430	-27.469915	246.378254	785.714287	-41.286269	261.851880	886.715437	-32.605278	304.160272	682.273959	-58.989536	283.773634	667.282752	-164.155280	273.034824	552.562883	-26.142976	301.022144	469.212674	-43.782158	282.624410	384.661364	-52.232235	329.049201	475.097546	-73.524409	280.987399	263.988450	-61.001629	295.202630	287.392458	-149.209756	207.717038	234.756631	-108.466176	504.838926	222.984047	-106.658057	416.561503	189.744837	-41.398103	238.918062	1038.971287	-397.240062	321.503042	1013.635661	-384.495904	337.814557	1041.463045	-366.289178	383.127460	949.117537	-382.965272	456.390989	850.951707	-358.339132	444.206733	816.543174	-252.209339	139.575539	582.440930	-394.827410	171.735227	575.322469	-310.969470	74.462265	601.505818	-355.996632	195.468362	425.933227	-420.848076	369.087266	766.418145	-389.987740	317.145854	700.235471	-383.830875	236.712668	661.856632	-388.747324	332.264173	680.050481	-350.051106	277.379244	396.358328	-353.311111	-138.205989	942.765876	-225.100292	17.624207	81.287050	-427.644385	17.914714	80.178512	-29.019193	
503	2.5150	554.156215	1361.552771	-37.005170	576.980647	1315.415957	-392.378474	551.215466	1431.557267	-226.775243	507.652326	1275.711779	-208.925437	544.886945	1119.219782	83.879902	734.213661	932.837332	-58.999427	539.634577	1049.324576	-501.258242	754.790038	911.471114	-416.936300	2.974054	1205.468043	-214.135572	169.377952	1219.970328	-371.134485	160.008546	1219.080376	-42.950484	188.169845	1176.168680	-317.240414	189.511862	1159.114350	-75.125739	33.563408	1246.294104	-148.682734	30.910225	1254.747389	-252.442890	81.308767	1087.094509	-30.721601	131.722405	1120.443310	-400.361273	167.036046	934.245521	-21.241497	223.999067	865.947133	-25.301909	238.911107	781.450694	-39.829864	257.225091	882.052842	-30.696429	293.967727	676.617800	-57.293305	273.291359	661.777600	-162.423697	263.058935	546.811479	-24.670789	291.750902	463.714678	-42.334275	274.094278	379.165800	-51.081990	319.951716	469.977851	-71.808295	273.811917	258.359262	-60.510614	288.041142	282.223980	-148.504783	200.825922	230.569759	-108.150260	497.705265	214.313459	-106.420421	408.986171	182.283194	-41.207890	240.284784	1044.655195	-395.627363	323.280248	1020.594634	-383.304139	339.167642	1048.377804	-364.709858	386.070854	957.091216	-382.518608	460.853834	859.340258	-358.333195	449.306236	824.316322	-252.202084	145.167981	589.534524	-394.242923	177.040657	581.873488	-310.545260	79.545070	607.660822	-355.679073	203.384729	434.231229	-420.734845	373.638822	774.993592	-389.603006	321.068209	706.841233	-380.881838	241.792376	669.571415	-387.758124	338.348731	688.545443	-352.899763	286.085472	405.576083	-352.509872	-138.242446	942.925512	-224.631973	17.610617	81.522331	-427.550773	17.907065	80.219568	-28.967403	
